<?xml version="1.0" encoding="utf-8"?>
<!-- Generator: Adobe Illustrator 25.0.0, SVG Export Plug-In . SVG Version: 6.00 Build 0)  -->
<svg version="1.1" xmlns="http://www.w3.org/2000/svg" xmlns:xlink="http://www.w3.org/1999/xlink" x="0px" y="0px"
	 viewBox="0 0 499.32 375.23" style="enable-background:new 0 0 499.32 375.23;" xml:space="preserve" >
<g id="Layer_1">
</g>
<g id="Layer_2">
	<path d="M495.29,176.25c-0.38-0.47-0.8-0.93-1.24-1.37L324.44,5.27c-7.03-7.03-18.43-7.03-25.46,0c-7.03,7.03-7.03,18.43,0,25.46
		l138.89,138.89H18c-9.94,0-18,8.06-18,18s8.06,18,18,18h419.87L298.98,344.5c-7.03,7.03-7.03,18.43,0,25.46
		c3.51,3.51,8.12,5.27,12.73,5.27s9.21-1.76,12.73-5.27l169.61-169.61C500.64,193.75,501.05,183.32,495.29,176.25z"/>
</g>
</svg>
